ISO-10303-21;
HEADER;
FILE_DESCRIPTION(('infinite-grid brep body'),'2;1');
FILE_NAME('step_chamfer.step','2026-10-06T00:00:00',(''),(''),'infinite-grid brep','infinite-grid','');
FILE_SCHEMA(('AUTOMOTIVE_DESIGN { 1 0 10303 214 1 1 1 1 }'));
ENDSEC;
DATA;
#1=CARTESIAN_POINT('',(9.,0.,10.));
#2=VERTEX_POINT('',#1);
#3=CARTESIAN_POINT('',(10.,1.,10.));
#4=VERTEX_POINT('',#3);
#5=CARTESIAN_POINT('',(9.,0.,10.));
#6=DIRECTION('',(0.70710678118654746,0.70710678118654746,0.));
#7=VECTOR('',#6,1.4142135623730951);
#8=LINE('',#5,#7);
#9=EDGE_CURVE('',#2,#4,#8,.T.);
#10=ORIENTED_EDGE('',*,*,#9,.F.);
#11=CARTESIAN_POINT('',(9.,0.,0.));
#12=VERTEX_POINT('',#11);
#13=CARTESIAN_POINT('',(9.,0.,0.));
#14=DIRECTION('',(0.,0.,1.));
#15=VECTOR('',#14,10.);
#16=LINE('',#13,#15);
#17=EDGE_CURVE('',#12,#2,#16,.T.);
#18=ORIENTED_EDGE('',*,*,#17,.F.);
#19=CARTESIAN_POINT('',(10.,0.99999999999999989,0.));
#20=VERTEX_POINT('',#19);
#21=CARTESIAN_POINT('',(10.,0.99999999999999989,0.));
#22=DIRECTION('',(-0.70710678118654757,-0.70710678118654746,0.));
#23=VECTOR('',#22,1.4142135623730949);
#24=LINE('',#21,#23);
#25=EDGE_CURVE('',#20,#12,#24,.T.);
#26=ORIENTED_EDGE('',*,*,#25,.F.);
#27=CARTESIAN_POINT('',(10.,1.,10.));
#28=DIRECTION('',(0.,-1.1102230246251566e-17,-1.));
#29=VECTOR('',#28,10.);
#30=LINE('',#27,#29);
#31=EDGE_CURVE('',#4,#20,#30,.T.);
#32=ORIENTED_EDGE('',*,*,#31,.F.);
#33=EDGE_LOOP('',(#10,#18,#26,#32));
#34=FACE_OUTER_BOUND('',#33,.T.);
#35=CARTESIAN_POINT('',(9.,0.,10.));
#36=DIRECTION('',(0.70710678118654757,-0.70710678118654757,0.));
#37=DIRECTION('',(0.,0.,1.));
#38=AXIS2_PLACEMENT_3D('',#35,#36,#37);
#39=PLANE('',#38);
#40=ADVANCED_FACE('',(#34),#39,.T.);
#41=ORIENTED_EDGE('',*,*,#9,.T.);
#42=CARTESIAN_POINT('',(10.,10.,10.));
#43=VERTEX_POINT('',#42);
#44=CARTESIAN_POINT('',(10.,10.,10.));
#45=DIRECTION('',(0.,-1.,0.));
#46=VECTOR('',#45,9.);
#47=LINE('',#44,#46);
#48=EDGE_CURVE('',#43,#4,#47,.T.);
#49=ORIENTED_EDGE('',*,*,#48,.F.);
#50=CARTESIAN_POINT('',(0.,10.,10.));
#51=VERTEX_POINT('',#50);
#52=CARTESIAN_POINT('',(0.,10.,10.));
#53=DIRECTION('',(1.,0.,0.));
#54=VECTOR('',#53,10.);
#55=LINE('',#52,#54);
#56=EDGE_CURVE('',#51,#43,#55,.T.);
#57=ORIENTED_EDGE('',*,*,#56,.F.);
#58=CARTESIAN_POINT('',(0.,0.,10.));
#59=VERTEX_POINT('',#58);
#60=CARTESIAN_POINT('',(0.,0.,10.));
#61=DIRECTION('',(0.,1.,0.));
#62=VECTOR('',#61,10.);
#63=LINE('',#60,#62);
#64=EDGE_CURVE('',#59,#51,#63,.T.);
#65=ORIENTED_EDGE('',*,*,#64,.F.);
#66=CARTESIAN_POINT('',(9.,0.,10.));
#67=DIRECTION('',(-1.,0.,0.));
#68=VECTOR('',#67,9.);
#69=LINE('',#66,#68);
#70=EDGE_CURVE('',#2,#59,#69,.T.);
#71=ORIENTED_EDGE('',*,*,#70,.F.);
#72=EDGE_LOOP('',(#41,#49,#57,#65,#71));
#73=FACE_OUTER_BOUND('',#72,.T.);
#74=CARTESIAN_POINT('',(10.,0.99999999999999989,10.));
#75=DIRECTION('',(0.,0.,1.));
#76=DIRECTION('',(1.,0.,0.));
#77=AXIS2_PLACEMENT_3D('',#74,#75,#76);
#78=PLANE('',#77);
#79=ADVANCED_FACE('',(#73),#78,.T.);
#80=CARTESIAN_POINT('',(10.,10.,0.));
#81=VERTEX_POINT('',#80);
#82=CARTESIAN_POINT('',(10.,0.99999999999999989,0.));
#83=DIRECTION('',(0.,1.,0.));
#84=VECTOR('',#83,9.);
#85=LINE('',#82,#84);
#86=EDGE_CURVE('',#20,#81,#85,.T.);
#87=ORIENTED_EDGE('',*,*,#86,.F.);
#88=ORIENTED_EDGE('',*,*,#25,.T.);
#89=CARTESIAN_POINT('',(0.,0.,0.));
#90=VERTEX_POINT('',#89);
#91=CARTESIAN_POINT('',(0.,0.,0.));
#92=DIRECTION('',(1.,0.,0.));
#93=VECTOR('',#92,9.);
#94=LINE('',#91,#93);
#95=EDGE_CURVE('',#90,#12,#94,.T.);
#96=ORIENTED_EDGE('',*,*,#95,.F.);
#97=CARTESIAN_POINT('',(0.,10.,0.));
#98=VERTEX_POINT('',#97);
#99=CARTESIAN_POINT('',(0.,10.,0.));
#100=DIRECTION('',(0.,-1.,0.));
#101=VECTOR('',#100,10.);
#102=LINE('',#99,#101);
#103=EDGE_CURVE('',#98,#90,#102,.T.);
#104=ORIENTED_EDGE('',*,*,#103,.F.);
#105=CARTESIAN_POINT('',(10.,10.,0.));
#106=DIRECTION('',(-1.,0.,0.));
#107=VECTOR('',#106,10.);
#108=LINE('',#105,#107);
#109=EDGE_CURVE('',#81,#98,#108,.T.);
#110=ORIENTED_EDGE('',*,*,#109,.F.);
#111=EDGE_LOOP('',(#87,#88,#96,#104,#110));
#112=FACE_OUTER_BOUND('',#111,.T.);
#113=CARTESIAN_POINT('',(10.,10.,0.));
#114=DIRECTION('',(-0.,-0.,-1.));
#115=DIRECTION('',(1.,0.,0.));
#116=AXIS2_PLACEMENT_3D('',#113,#114,#115);
#117=PLANE('',#116);
#118=ADVANCED_FACE('',(#112),#117,.T.);
#119=ORIENTED_EDGE('',*,*,#48,.T.);
#120=ORIENTED_EDGE('',*,*,#31,.T.);
#121=ORIENTED_EDGE('',*,*,#86,.T.);
#122=CARTESIAN_POINT('',(10.,10.,10.));
#123=DIRECTION('',(0.,0.,-1.));
#124=VECTOR('',#123,10.);
#125=LINE('',#122,#124);
#126=EDGE_CURVE('',#43,#81,#125,.T.);
#127=ORIENTED_EDGE('',*,*,#126,.F.);
#128=EDGE_LOOP('',(#119,#120,#121,#127));
#129=FACE_OUTER_BOUND('',#128,.T.);
#130=CARTESIAN_POINT('',(10.,10.,10.));
#131=DIRECTION('',(1.,0.,0.));
#132=DIRECTION('',(0.,0.,1.));
#133=AXIS2_PLACEMENT_3D('',#130,#131,#132);
#134=PLANE('',#133);
#135=ADVANCED_FACE('',(#129),#134,.T.);
#136=ORIENTED_EDGE('',*,*,#64,.T.);
#137=CARTESIAN_POINT('',(0.,10.,0.));
#138=DIRECTION('',(0.,0.,1.));
#139=VECTOR('',#138,10.);
#140=LINE('',#137,#139);
#141=EDGE_CURVE('',#98,#51,#140,.T.);
#142=ORIENTED_EDGE('',*,*,#141,.F.);
#143=ORIENTED_EDGE('',*,*,#103,.T.);
#144=CARTESIAN_POINT('',(0.,0.,10.));
#145=DIRECTION('',(0.,0.,-1.));
#146=VECTOR('',#145,10.);
#147=LINE('',#144,#146);
#148=EDGE_CURVE('',#59,#90,#147,.T.);
#149=ORIENTED_EDGE('',*,*,#148,.F.);
#150=EDGE_LOOP('',(#136,#142,#143,#149));
#151=FACE_OUTER_BOUND('',#150,.T.);
#152=CARTESIAN_POINT('',(0.,0.,10.));
#153=DIRECTION('',(-1.,-0.,-0.));
#154=DIRECTION('',(0.,0.,1.));
#155=AXIS2_PLACEMENT_3D('',#152,#153,#154);
#156=PLANE('',#155);
#157=ADVANCED_FACE('',(#151),#156,.T.);
#158=ORIENTED_EDGE('',*,*,#56,.T.);
#159=ORIENTED_EDGE('',*,*,#126,.T.);
#160=ORIENTED_EDGE('',*,*,#109,.T.);
#161=ORIENTED_EDGE('',*,*,#141,.T.);
#162=EDGE_LOOP('',(#158,#159,#160,#161));
#163=FACE_OUTER_BOUND('',#162,.T.);
#164=CARTESIAN_POINT('',(0.,10.,10.));
#165=DIRECTION('',(0.,1.,0.));
#166=DIRECTION('',(0.,0.,1.));
#167=AXIS2_PLACEMENT_3D('',#164,#165,#166);
#168=PLANE('',#167);
#169=ADVANCED_FACE('',(#163),#168,.T.);
#170=ORIENTED_EDGE('',*,*,#70,.T.);
#171=ORIENTED_EDGE('',*,*,#148,.T.);
#172=ORIENTED_EDGE('',*,*,#95,.T.);
#173=ORIENTED_EDGE('',*,*,#17,.T.);
#174=EDGE_LOOP('',(#170,#171,#172,#173));
#175=FACE_OUTER_BOUND('',#174,.T.);
#176=CARTESIAN_POINT('',(9.,0.,10.));
#177=DIRECTION('',(-0.,-1.,-0.));
#178=DIRECTION('',(0.,0.,1.));
#179=AXIS2_PLACEMENT_3D('',#176,#177,#178);
#180=PLANE('',#179);
#181=ADVANCED_FACE('',(#175),#180,.T.);
#182=CLOSED_SHELL('',(#40,#79,#118,#135,#157,#169,#181));
#183=MANIFOLD_SOLID_BREP('',#182);
#184=(LENGTH_UNIT()NAMED_UNIT(*)SI_UNIT(.MILLI.,.METRE.));
#185=(NAMED_UNIT(*)PLANE_ANGLE_UNIT()SI_UNIT($,.RADIAN.));
#186=(NAMED_UNIT(*)SI_UNIT($,.STERADIAN.));
#187=UNCERTAINTY_MEASURE_WITH_UNIT(LENGTH_MEASURE(1.E-6),#184,'distance_accuracy_value','');
#188=(GEOMETRIC_REPRESENTATION_CONTEXT(3)GLOBAL_UNCERTAINTY_ASSIGNED_CONTEXT((#187))GLOBAL_UNIT_ASSIGNED_CONTEXT((#184,#185,#186))REPRESENTATION_CONTEXT('',''));
#189=ADVANCED_BREP_SHAPE_REPRESENTATION('',(#183),#188);
#190=APPLICATION_CONTEXT('core data for automotive mechanical design processes');
#191=PRODUCT_CONTEXT('','mechanical','');
#192=APPLICATION_PROTOCOL_DEFINITION('international standard','automotive_design',2000,#190);
#193=PRODUCT('body','body','',(#191));
#194=PRODUCT_DEFINITION_FORMATION('','',#193);
#195=PRODUCT_DEFINITION('design','',#194,#192);
#196=PRODUCT_DEFINITION_SHAPE('','',#195);
#197=SHAPE_DEFINITION_REPRESENTATION(#196,#189);
ENDSEC;
END-ISO-10303-21;
